<?xml version="1.0" encoding="iso-8859-1"?>
<!-- Generator: Adobe Illustrator 16.0.0, SVG Export Plug-In . SVG Version: 6.00 Build 0)  -->
<!DOCTYPE svg PUBLIC "-//W3C//DTD SVG 1.1//EN" "http://www.w3.org/Graphics/SVG/1.1/DTD/svg11.dtd">
<svg version="1.1" id="Capa_1" xmlns="http://www.w3.org/2000/svg" xmlns:xlink="http://www.w3.org/1999/xlink" x="0px" y="0px"
	 width="937.4px" height="937.4px" viewBox="0 0 937.4 937.4" style="enable-background:new 0 0 937.4 937.4;" xml:space="preserve"
	>
<g>
	<path d="M887.4,418.7h-31.8c-4.5-35-13.7-69.1-27.5-101.8c-19.601-46.4-47.801-88.2-83.601-124c-35.8-35.8-77.5-63.9-124-83.6
		c-32.7-13.8-66.8-23-101.8-27.5V50c0-27.6-22.4-50-50-50s-50,22.4-50,50v31.8c-35,4.5-69.1,13.7-101.8,27.5
		c-46.4,19.6-88.2,47.8-124,83.6c-35.8,35.8-63.9,77.5-83.6,124c-13.8,32.7-23,66.8-27.5,101.8H50c-27.6,0-50,22.4-50,50
		c0,27.601,22.4,50,50,50h31.8c4.5,35,13.7,69.102,27.5,101.801c19.6,46.4,47.8,88.199,83.6,124c35.8,35.801,77.5,63.9,124,83.6
		c32.7,13.801,66.8,23,101.8,27.5V887.4c0,27.6,22.4,50,50,50s50-22.4,50-50V855.6c35-4.5,69.1-13.699,101.8-27.5
		c46.4-19.6,88.2-47.799,124-83.6s63.9-77.5,83.601-124c13.8-32.699,23-66.801,27.5-101.801h31.8c27.6,0,50-22.398,50-50
		C937.4,441.1,915,418.7,887.4,418.7z M730,518.699h24.4C744.3,577.1,716.5,631,673.7,673.801c-42.8,42.799-96.6,70.6-155.1,80.699
		v-24.4c0-27.6-22.4-50-50-50c-27.601,0-50,22.4-50,50v24.4C360.2,744.4,306.3,716.6,263.5,673.801
		c-42.8-42.801-70.6-96.602-80.7-155.102h24.4c27.6,0,50-22.398,50-50c0-27.6-22.4-50-50-50h-24.4
		c10.1-58.399,37.9-112.3,80.7-155.1s96.601-70.6,155.101-80.7v24.4c0,27.6,22.399,50,50,50c27.6,0,50-22.4,50-50v-24.4
		C577,193,630.9,220.8,673.7,263.6s70.6,96.6,80.7,155.1H730c-27.6,0-50,22.4-50,50C680,496.301,702.4,518.699,730,518.699z"/>
</g>
<g>
</g>
<g>
</g>
<g>
</g>
<g>
</g>
<g>
</g>
<g>
</g>
<g>
</g>
<g>
</g>
<g>
</g>
<g>
</g>
<g>
</g>
<g>
</g>
<g>
</g>
<g>
</g>
<g>
</g>
</svg>
